<?xml version="1.0" encoding="UTF-8" standalone="no"?>
<svg
   xmlns:dc="http://purl.org/dc/elements/1.1/"
   xmlns:cc="http://creativecommons.org/ns#"
   xmlns:rdf="http://www.w3.org/1999/02/22-rdf-syntax-ns#"
   xmlns:svg="http://www.w3.org/2000/svg"
   xmlns="http://www.w3.org/2000/svg"
   xmlns:sodipodi="http://sodipodi.sourceforge.net/DTD/sodipodi-0.dtd"
   xmlns:inkscape="http://www.inkscape.org/namespaces/inkscape"
   height="300px"
   width="300px"
   fill="#000000"
   viewBox="0 0 48 48"
   x="0px"
   y="0px"
   version="1.1"
   id="svg16"
   sodipodi:docname="time-short-icon.svg"
   inkscape:version="0.92.3 (2405546, 2018-03-11)">
  <metadata
     id="metadata22">
    <rdf:RDF>
      <cc:Work
         rdf:about="">
        <dc:format>image/svg+xml</dc:format>
        <dc:type
           rdf:resource="http://purl.org/dc/dcmitype/StillImage" />
        <dc:title>Sport_glyph</dc:title>
      </cc:Work>
    </rdf:RDF>
  </metadata>
  <defs
     id="defs20" />
  <sodipodi:namedview
     pagecolor="#ffffff"
     bordercolor="#666666"
     borderopacity="1"
     objecttolerance="10"
     gridtolerance="10"
     guidetolerance="10"
     inkscape:pageopacity="0"
     inkscape:pageshadow="2"
     inkscape:window-width="1858"
     inkscape:window-height="1057"
     id="namedview18"
     showgrid="false"
     inkscape:zoom="1.423099"
     inkscape:cx="476.18682"
     inkscape:cy="158.26271"
     inkscape:window-x="54"
     inkscape:window-y="-8"
     inkscape:window-maximized="1"
     inkscape:current-layer="svg16" />
  <title
     id="title2">Sport_glyph</title>
  <g
     id="g3761"
     transform="translate(-51.864407,2.0338988)">
    <path
       d="m 75.864411,10.273102 a 15.232,15.232 0 0 1 13.816094,8.818782 L 75.86441,25.505102 Z"
       sodipodi:end="5.8485983"
       sodipodi:start="4.712389"
       sodipodi:ry="15.232"
       sodipodi:rx="15.232"
       sodipodi:cy="25.505102"
       sodipodi:cx="75.86441"
       sodipodi:type="arc"
       style="fill:#000000;stroke-width:0.08321185"
       id="path3727" />
    <path
       inkscape:connector-curvature="0"
       d="M 79.044407,-0.81389831 V 2.3961017 a 0.469,0.469 0 0 1 -0.47,0.47 h -0.36 v 1.56 a 20.315,20.315 0 0 0 -2.35,-0.13 20.545,20.545 0 0 0 -2.08,0.1 v -1.53 h -0.35 a 0.469,0.469 0 0 1 -0.47,-0.47 v -3.21000001 a 0.469,0.469 0 0 1 0.47,-0.46999999 h 5.14 a 0.469,0.469 0 0 1 0.47,0.46999999 z"
       id="path3729" />
    <path
       inkscape:connector-curvature="0"
       d="m 63.694407,8.1561017 a 19.22,19.22 0 0 0 -2.65,2.2000003 l -0.58,-0.7300003 -0.14,0.12 a 0.473,0.473 0 0 1 -0.66,-0.07 l -1.06,-1.29 a 0.456,0.456 0 0 1 0.07,-0.66 l 2.94,-2.38 a 0.473,0.473 0 0 1 0.66,0.07 l 1.06,1.28 a 0.468,0.468 0 0 1 -0.07,0.67 l -0.13,0.1 z"
       id="path3731" />
    <path
       inkscape:connector-curvature="0"
       d="m 93.384407,8.3861017 -1.05,1.29 a 0.474,0.474 0 0 1 -0.66,0.07 l -0.14,-0.12 -0.7,0.8700003 a 20.3,20.3 0 0 0 -2.6,-2.2000003 l 0.62,-0.83 -0.13,-0.1 a 0.486,0.486 0 0 1 -0.07,-0.67 l 1.06,-1.28 a 0.473,0.473 0 0 1 0.66,-0.07 l 2.95,2.38 a 0.463,0.463 0 0 1 0.06,0.66 z"
       id="path3733" />
    <path
       inkscape:connector-curvature="0"
       d="m 76.000407,24.314102 a 1.192,1.192 0 1 0 1.192,1.191 1.194,1.194 0 0 0 -1.192,-1.191 z"
       id="path3735" />
    <path
       inkscape:connector-curvature="0"
       d="m 75.864407,5.7941017 a 19.711,19.711 0 1 0 19.711,19.7110003 19.711,19.711 0 0 0 -19.711,-19.7110003 z m 14.511,28.0890003 c -0.005,0.008 -0.014,0.01 -0.019,0.018 a 16.857,16.857 0 0 1 -6.092,6.091 c -0.01,0.007 -0.015,0.018 -0.026,0.024 -0.011,0.006 -0.015,0 -0.021,0.006 a 16.632,16.632 0 0 1 -16.714,0 c -0.006,0 -0.014,0 -0.021,-0.006 -0.007,-0.006 -0.016,-0.017 -0.026,-0.024 a 16.857,16.857 0 0 1 -6.088,-6.091 c 0,-0.008 -0.014,-0.01 -0.019,-0.018 -0.005,-0.008 0,-0.018 -0.009,-0.027 a 16.629,16.629 0 0 1 0,-16.7 c 0,-0.009 0,-0.018 0.009,-0.027 0.009,-0.009 0.017,-0.016 0.024,-0.027 a 16.865,16.865 0 0 1 6.091,-6.084 c 0.01,-0.007 0.015,-0.018 0.026,-0.024 0.011,-0.006 0.018,0 0.027,-0.009 a 16.635,16.635 0 0 1 16.7,0 c 0.009,0 0.018,0 0.027,0.009 0.009,0.009 0.016,0.017 0.026,0.024 a 16.865,16.865 0 0 1 6.083,6.082 c 0.007,0.011 0.018,0.016 0.024,0.027 0.006,0.011 0,0.018 0.009,0.027 a 16.629,16.629 0 0 1 0,16.7 c -0.007,0.012 -0.006,0.021 -0.011,0.029 z"
       id="path3739" />
  </g>
</svg>
