<svg enable-background="new 0 0 92.27 122.88" viewBox="0 0 92.27 122.88" xmlns="http://www.w3.org/2000/svg"><g clip-rule="evenodd" fill-rule="evenodd"><path d="m18.61 54.89c-2.91-26.09 12.33-44.44 40.91-54.89-17.5 22.71 14.92 47.31 16.71 70.89 4.19-7.15 6.57-16.69 7.04-29.45 21.43 33.62 3.66 88.57-43.5 80.67-4.33-.72-8.5-2.09-12.3-4.13-17.2-9.18-27.47-29.19-27.47-48.3 0-12.18 5.21-23.05 11.95-31.69.9 8.46 2.82 14.77 6.66 16.9z" fill="#ec6f59"/><path d="m33.87 92.58c-4.86-12.55-4.19-32.82 9.42-39.93.1 23.3 23.05 26.27 18.8 51.14 3.92-4.44 5.9-11.54 6.25-17.15 6.22 14.24 1.34 25.63-7.53 31.43-26.97 17.64-50.19-18.12-34.75-37.72.47 4.38 5.83 11.14 7.81 12.23z" fill="#fad15c"/></g></svg>